HIERARCHY
ROOT pelvis
{
  OFFSET 0 100 0
  CHANNELS 6 Xposition Yposition Zposition Zrotation Xrotation Yrotation
  JOINT pelvis_right_femur
  {
    OFFSET -10.78128 -3.44521 -0.5502486
    CHANNELS 3 Zrotation Xrotation Yrotation
    JOINT right_femur_tibia
    {
      OFFSET -0.8047443 -44.0398 -0.1307829
      CHANNELS 3 Zrotation Xrotation Yrotation
      JOINT right_tibia_foot
      {
        OFFSET 3.006224 -47.83518 -5
        CHANNELS 3 Zrotation Xrotation Yrotation
        End Site
        {
          OFFSET 0 -5 15
        }
      }
    }
  }
  JOINT pelvis_left_femur
  {
    OFFSET 10.78128 -3.44521 -0.5502486
    CHANNELS 3 Zrotation Xrotation Yrotation
    JOINT left_femur_tibia
    {
      OFFSET 0.8047443 -44.0398 -0.1307829
      CHANNELS 3 Zrotation Xrotation Yrotation
      JOINT left_tibia_foot
      {
        OFFSET -4.370144 -48.10324 -4.275266
        CHANNELS 3 Zrotation Xrotation Yrotation
        End Site
        {
          OFFSET 0 -5 15
        }
      }
    }
  }
  JOINT pelvis_spine1
  {
    OFFSET 0 6.468898 -3.129235
    CHANNELS 3 Zrotation Xrotation Yrotation
    JOINT spine1
    {
      OFFSET 0 23.15396 4.99043
      CHANNELS 3 Zrotation Xrotation Yrotation
      JOINT spine2
      {
        OFFSET 0 20.79997 -5.064912
        CHANNELS 3 Zrotation Xrotation Yrotation
        JOINT neck
        {
          OFFSET 0 14.38658 9.616178
          CHANNELS 3 Zrotation Xrotation Yrotation
          End Site
          {
            OFFSET 0 20 0
          }
        }
      }
      JOINT right_manubrium
      {
        OFFSET -5.722621 16.35077 3.967754
        CHANNELS 3 Zrotation Xrotation Yrotation
        JOINT right_clavicle
        {
          OFFSET -13.16364 1.694482 -4.693211
          CHANNELS 3 Zrotation Xrotation Yrotation
          JOINT right_humerus
          {
            OFFSET -28.5034 -0.3100689 -2.792744
            CHANNELS 3 Zrotation Xrotation Yrotation
            JOINT right_radius
            {
              OFFSET -25.15693 0.02248979 -1.271978
              CHANNELS 3 Zrotation Xrotation Yrotation
              End Site
              {
                OFFSET -15 0 0
              }
            }
          }
        }
      }
      JOINT left_manubrium
      {
        OFFSET 5.722621 16.35077 3.967754
        CHANNELS 3 Zrotation Xrotation Yrotation
        JOINT left_clavicle
        {
          OFFSET 13.16364 1.694482 -4.693211
          CHANNELS 3 Zrotation Xrotation Yrotation
          JOINT left_humerus
          {
            OFFSET 29.39168 -1.063119 -2.237045
            CHANNELS 3 Zrotation Xrotation Yrotation
            JOINT left_radius
            {
              OFFSET 24.59957 -0.9528479 0.9047498
              CHANNELS 3 Zrotation Xrotation Yrotation
              End Site
              {
                OFFSET 15 -0 -0
              }
            }
          }
        }
      }
    }
  }
}
MOTION
Frames: 9
Frame Time: 0.0416666666667
0 103.5113 0 1.280639 -3.294487 0.157476 1.435156 -11.9997 6.333239 -0 40.41464 -0 -7.058137 -15.1157 -3.628534 -6.575197 13.05423 -23.87158 -0 5.749122 -0 0.7213531 -19.37654 23.42698 -1.695748 -1.452029 3.398952 1.154323 6.221948 -7.451536 1.442975 22.62027 8.467697 5.260878 -23.56081 9.042586 5.604592 -17.92492 10.02058 87.70553 36.60757 -22.28231 -0 0 15.3144 -7.599169 8.857613 3.255649 6.512544 -20.57409 -2.249121 -98.77613 42.75985 25.50692 0 0 -25.3816 -10.28194 17.26705 28.4316
0.1184317 104.3263 1.22341 0.4634605 -2.261747 0.1147683 2.89099 -14.50799 8.227364 -0 42.08962 -0 -6.867523 -14.87123 -4.659736 -5.960163 12.8582 -24.25256 -0 6.047097 -0 -0.7609103 -20.69836 23.57965 -1.529916 -1.438894 3.507836 1.07472 6.342817 -7.456973 1.45841 22.55997 8.450181 5.263197 -23.4957 9.040465 5.662792 -17.85155 10.0029 87.81782 36.69918 -22.48228 -0 0 15.19115 -7.657862 9.069957 3.185278 6.642758 -20.74348 -2.229455 -98.64199 42.53738 25.38261 0 0 -25.57046 -9.853673 17.32588 28.13738
0.29447 104.806 2.890588 0.1168637 -1.120518 0.1073357 3.614679 -19.53628 6.707267 -0 36.42784 -0 -6.970816 -12.35726 -3.793157 -5.938923 12.55127 -22.50025 -0 5.555195 -0 0.4538224 -21.62119 22.43115 -1.829998 -1.472259 3.443565 1.352296 6.243318 -7.502493 1.347701 22.5757 8.374095 5.158432 -23.7406 8.935013 5.864691 -17.77632 10.12883 87.2718 36.52457 -22.07186 -0 0 15.2459 -7.157779 8.552777 3.439124 6.419855 -20.4109 -2.245856 -98.44431 42.19709 25.12452 0 0 -25.07841 -9.433708 17.0794 27.34171
0.4700596 105.1903 4.731719 -0.3872012 0.02337488 0.08404991 4.839673 -23.00578 7.495949 -0 34.51294 -0 -6.601251 -11.68247 -3.983361 -5.667766 12.33732 -22.1476 -0 5.691834 -0 0.8455669 -22.35347 22.36047 -2.014296 -1.496453 3.352947 1.53571 6.147715 -7.549301 1.292114 22.59493 8.336493 5.095848 -23.91583 8.896819 5.946198 -17.74238 10.1917 87.03058 36.35121 -21.91326 -0 0 15.28688 -6.765689 8.180355 3.52472 6.280799 -20.20364 -2.257176 -98.41663 42.15217 25.0268 0 0 -24.81824 -9.375583 16.94636 27.06904
0.6484856 105.4695 6.813462 -0.816369 1.066197 0.07620411 5.969197 -26.38939 8.019048 -0 32.04462 -0 -6.297639 -10.80651 -3.900903 -5.444959 12.26431 -21.7673 -0 6.000763 -0 1.521848 -22.87311 22.2492 -2.17973 -1.529335 3.249465 1.755234 6.051172 -7.631676 1.234261 22.59509 8.283189 5.011952 -24.14743 8.868278 6.055953 -17.66982 10.25549 86.83093 36.11403 -21.87543 -0 0 15.29084 -6.178759 7.733555 3.542884 6.162217 -20.00706 -2.257756 -98.38834 42.10136 24.88036 0 0 -24.59516 -9.211197 16.81308 26.69251
0.8269856 105.6647 9.153263 -1.262265 1.972147 0.1026437 7.06393 -29.4979 8.495137 -0 29.65277 -0 -6.113951 -9.78466 -3.771953 -5.15216 12.32434 -21.47266 -0 6.554579 -0 1.669377 -23.43985 21.87471 -2.342533 -1.560023 3.103755 1.973571 5.92369 -7.719925 1.189777 22.60941 8.241984 4.934255 -24.3834 8.862327 6.111929 -17.62025 10.30507 86.71522 35.83994 -21.89588 -0 0 15.30828 -5.584245 7.269545 3.518161 6.037112 -19.80877 -2.260947 -98.44915 42.20374 24.81198 0 0 -24.40671 -9.26298 16.70282 26.55423
1.00298 105.7692 11.82763 -1.617732 2.719828 0.1968508 7.858139 -32.35353 8.4812 -0 26.65304 -0 -6.050465 -8.456076 -3.482398 -4.889407 12.61735 -21.00435 -0 7.342866 -0 1.453862 -23.99742 21.05006 -2.487325 -1.586877 2.949182 2.193439 5.794249 -7.815473 1.149938 22.62049 8.200566 4.853432 -24.6265 8.864642 6.155154 -17.56686 10.35119 86.64138 35.55201 -21.96521 -0 0 15.31182 -4.971772 6.809336 3.472227 5.918513 -19.62177 -2.260916 -98.52622 42.3305 24.75396 0 0 -24.24426 -9.335515 16.6012 26.45309
1.166833 105.7854 14.93904 -1.845333 3.305781 0.4011598 8.218902 -34.79897 7.888669 -0 22.94969 -0 -6.058539 -6.891967 -3.137852 -4.674293 13.22768 -20.27142 -0 8.47844 -0 0.6884705 -24.52937 19.62902 -2.633072 -1.60992 2.764786 2.421887 5.643854 -7.916565 1.115544 22.64206 8.161066 4.768786 -24.87959 8.877193 6.163877 -17.52495 10.39297 86.61559 35.23386 -22.06796 -0 0 15.31658 -4.346528 6.327543 3.409305 5.786342 -19.42514 -2.264047 -98.65503 42.53938 24.74437 0 0 -24.09076 -9.531732 16.50768 26.48265
1.297317 105.7339 18.63034 -1.885275 3.676297 0.7602138 7.983916 -36.40451 6.636015 -0 18.61961 -0 -6.061633 -5.222832 -2.900276 -4.535193 14.2569 -19.13283 -0 10.18294 -0 -0.80509 -24.85195 17.48745 -2.775594 -1.627805 2.559937 2.656388 5.480834 -8.020889 1.084911 22.67218 8.120335 4.678115 -25.13855 8.895682 6.143842 -17.49139 10.43271 86.6293 34.89612 -22.19608 -0 0 15.3159 -3.722299 5.836257 3.338623 5.641913 -19.22233 -2.270347 -98.81918 42.79784 24.77364 0 0 -23.94187 -9.810791 16.41991 26.60179
